<?xml version="1.0" standalone="no"?><!DOCTYPE svg PUBLIC "-//W3C//DTD SVG 1.1//EN" "http://www.w3.org/Graphics/SVG/1.1/DTD/svg11.dtd"><svg t="1539685023996" class="icon" style="" viewBox="0 0 1024 1024" version="1.1" xmlns="http://www.w3.org/2000/svg" p-id="5204" xmlns:xlink="http://www.w3.org/1999/xlink" width="200" height="200"><defs><style type="text/css"></style></defs><path d="M399.304 0c47.25 0 87.652 41.3 87.652 89.6v199.702c34.096-32.68 99.532-36.692 141.888 12.598 45.658-28.576 106.034-4.294 124.63 32.9C851.756 316.852 896 378.692 896 480c0 5.492-0.406 26.552-0.39 32 0.336 123.942-62.13 153.788-76.63 247.462C815.366 782.808 795.198 800 771.572 800H428.522l-0.002-0.004c-36.732-0.022-71.778-21.214-87.69-56.928C314.842 685.296 242.754 552.244 186.184 528 149.794 512.406 128.016 485.232 128 448c-0.028-68.444 70.196-115.504 133.816-88.238 16.718 7.166 33.34 16.624 49.836 28.306V89.6c0-46.9 41.086-89.6 87.652-89.6zM400 832h384c26.51 0 48 21.49 48 48v96c0 26.51-21.49 48-48 48H400c-26.51 0-48-21.49-48-48v-96c0-26.51 21.49-48 48-48z m336 56c-22.092 0-40 17.908-40 40s17.908 40 40 40 40-17.908 40-40-17.908-40-40-40z" fill="#5BABF3" p-id="5205"></path></svg>